<svg xmlns="http://www.w3.org/2000/svg" viewBox="0 0 900 600"><rect width="900" height="600" fill="#fff"/><rect width="900" height="600" fill="#000" height="200"/><rect y="200" width="900" height="200" fill="#bb0000"/><rect y="400" width="900" height="200" fill="#060"/><rect y="100" width="900" height="400" fill="none" stroke="#fff" stroke-width="33.333"/><g><ellipse cx="450" cy="300" rx="120" ry="240" fill="#bb0000" stroke="#fff" stroke-width="10"/><ellipse cx="450" cy="300" rx="60" ry="240" fill="#000"/><ellipse cx="450" cy="300" rx="20" ry="40" fill="#fff"/><ellipse cx="450" cy="300" rx="10" ry="20" fill="#fff"/><g stroke="#000" stroke-width="5"><path d="M450 60L450 540"/><path d="M330 300L570 300"/></g><g fill="#fff"><ellipse cx="450" cy="120" rx="20" ry="40"/><ellipse cx="450" cy="480" rx="20" ry="40"/></g><g stroke="#000" stroke-width="5"><path d="M370 60L530 540"/><path d="M530 60L370 540"/></g></g><g><rect x="420" y="60" width="60" height="480" fill="none" stroke="#fff" stroke-width="10"/><rect x="330" y="270" width="240" height="60" fill="none" stroke="#fff" stroke-width="10"/></g></svg> 